<svg id="Group_99" data-name="Group 99" xmlns="http://www.w3.org/2000/svg" xmlns:xlink="http://www.w3.org/1999/xlink" width="355.946" height="186.439" viewBox="0 0 355.946 186.439">
  <defs>
    <clipPath id="clip-path">
      <rect id="Rectangle_658" data-name="Rectangle 658" width="355.946" height="186.44" fill="none"/>
    </clipPath>
  </defs>
  <g id="Group_96" data-name="Group 96" transform="translate(0 0)">
    <g id="Group_95" data-name="Group 95" clip-path="url(#clip-path)">
      <path id="Path_1879" data-name="Path 1879" d="M22.545,14.146a53.384,53.384,0,0,1,7.608,3.624c-.928,3.113-1.856,6.2-2.791,9.336a46.813,46.813,0,0,1,6.705,5.3c2.856-1.587,5.679-3.16,8.564-4.766a52.949,52.949,0,0,1,5.281,6.531q-3.295,3.583-6.6,7.191a45.912,45.912,0,0,1,3.73,7.662c3.276-.2,6.52-.406,9.808-.613a49.99,49.99,0,0,1,1.859,8.155c-3.045,1.221-6.042,2.421-9.094,3.646a44.067,44.067,0,0,1-.011,8.5c3.03,1.214,6.046,2.425,9.1,3.653a49.491,49.491,0,0,1-1.859,8.151l-9.8-.616a46.206,46.206,0,0,1-3.74,7.662c2.2,2.4,4.386,4.781,6.6,7.194a53.027,53.027,0,0,1-5.274,6.531c-2.86-1.591-5.7-3.168-8.568-4.766a46.7,46.7,0,0,1-6.709,5.3c.935,3.113,1.856,6.187,2.794,9.322a51.737,51.737,0,0,1-7.575,3.628c-.134-.163-.265-.308-.373-.464-.776-1.1-1.54-2.2-2.327-3.291a1.739,1.739,0,0,1-.348-1.095q.016-8.291-.011-16.585a.951.951,0,0,1,.533-.935A32.73,32.73,0,0,0,31.726,80.324,31.955,31.955,0,0,0,35.709,67.7a32.563,32.563,0,0,0-13.99-30.079,1.247,1.247,0,0,1-.609-1.178q.033-9.78,0-19.561a2,2,0,0,1,.431-1.337c.344-.424.642-.888,1-1.4" transform="translate(51.226 37.125)" fill="#072434"/>
      <path id="Path_1880" data-name="Path 1880" d="M34.171,114.777a52.885,52.885,0,0,1-7.608-3.635c.935-3.117,1.859-6.209,2.791-9.326a46.133,46.133,0,0,1-6.7-5.3l-8.5,4.733a41.024,41.024,0,0,1-5.335-6.509q3.278-3.572,6.589-7.18a46.059,46.059,0,0,1-3.74-7.658c-3.266.2-6.509.406-9.8.613A50.235,50.235,0,0,1,0,72.364c3.016-1.211,6.024-2.417,9.09-3.65a48.594,48.594,0,0,1,.014-8.5C6.075,59,3.063,57.79,0,56.561a50.638,50.638,0,0,1,1.856-8.137c3.262.145,6.52.428,9.811.594a45.834,45.834,0,0,1,3.737-7.651c-2.193-2.392-4.378-4.773-6.6-7.2a52.909,52.909,0,0,1,5.274-6.531l8.572,4.77a46.039,46.039,0,0,1,6.7-5.3c-.931-3.121-1.859-6.212-2.791-9.329a52.743,52.743,0,0,1,7.611-3.635c.442.631.888,1.25,1.3,1.888a1.032,1.032,0,0,1,.065.515c0,6.629-.018,13.258,0,19.887a1.386,1.386,0,0,1-.678,1.276c-7.2,5.15-11.874,12.019-13.436,20.746-2.015,11.261,1.182,21.025,9.17,29.206a30.676,30.676,0,0,0,5.962,4.679c.185.116.373.232.573.355a38.418,38.418,0,0,0-.141,5.4c-.029,1.783-.007,3.57-.007,5.353,0,2.247-.007,4.494.007,6.738a1.738,1.738,0,0,1-.352,1.1c-.826,1.138-1.627,2.294-2.472,3.49" transform="translate(0 37.122)" fill="#072434"/>
      <path id="Path_1881" data-name="Path 1881" d="M22.192,0c.036.036.062.047.069.065A24.124,24.124,0,0,0,24.153,4.4,56.708,56.708,0,0,1,28.738,18.34a36.691,36.691,0,0,1,.7,7.343c-.025,5.727,0,11.453-.015,17.18-.011,4.976-.047,9.953-.083,14.929,0,.544-.054,1.087-.087,1.627l-.138.033a7.179,7.179,0,0,1-.239-.765c-.359-1.9-.692-3.806-1.058-5.7a57.843,57.843,0,0,0-2.649-10.069,12.458,12.458,0,0,0-1.729-3.251,5.267,5.267,0,0,0-.337-.406,1.432,1.432,0,0,0-2.4.156,23.282,23.282,0,0,0-2.352,4.643,37.383,37.383,0,0,0-2.349,9.851c-.37,3.2-1.069,6.328-1.732,9.467-.319,1.5-.718,2.994-1.1,4.483a4.331,4.331,0,0,1-.46,1.084,7.413,7.413,0,0,1-.2-1.863q.038-6.54.083-13.08c.04-5.882.069-11.761.127-17.64.04-4.074.04-8.151.2-12.222a38.188,38.188,0,0,1,3-13.584A36.558,36.558,0,0,1,20.71,2.218c.536-.685.975-1.453,1.482-2.218" transform="translate(32.805 0)" fill="#072434"/>
      <path id="Path_1882" data-name="Path 1882" d="M20.462,70.774a1.807,1.807,0,0,0-.62,1.134c-.359,1.406-.667,2.823-1.026,4.23a15.886,15.886,0,0,0-.094,5.7c.094.9.163,1.8.221,2.7a1.463,1.463,0,0,1-.547,1.4c-.362.272-.323.587.094.761.7.29.761.837.757,1.461,0,.257-.105.453-.359.468-.877.054-1.754.1-2.631.109-.308,0-.471-.21-.406-.544.13-.667.257-1.334.384-1.993a2.543,2.543,0,0,0-2.316-1.145c-.815.043-.968-.1-1.018-.931a10.538,10.538,0,0,1,.265-3.73,13.588,13.588,0,0,0,.352-2.276,21.814,21.814,0,0,1,1.294-5.509,9.9,9.9,0,0,0,.674-3.606q.087-7.894.178-15.788c.065-6.187.12-12.374.2-18.564.036-2.707.109-5.415.174-8.122a31.333,31.333,0,0,1,1.645-9.054,31.322,31.322,0,0,1,2.251-5.346,5.493,5.493,0,0,1,.674-.975c.29-.326.573-.3.812.065a4.86,4.86,0,0,1,.54,1.124c.359,1.156.714,2.312,1,3.487.348,1.432.627,2.878.928,4.32a5.614,5.614,0,0,1,.083.786c.022.442-.047.511-.475.457-.457-.054-.913-.134-1.37-.2a5.106,5.106,0,0,0-5.31,3.476,1.6,1.6,0,0,0,.014.826c.149.468.544.518.844.138a4.109,4.109,0,0,0,.362-.623,4.3,4.3,0,0,1,1.287-1.486,3.046,3.046,0,0,1,4.237.8,4.979,4.979,0,0,1,.779,2.925c-.076,5.7-.083,11.406-.116,17.111q-.049,9.182-.105,18.369-.022,3.86-.018,7.727a3.414,3.414,0,0,0,.156,1.033,34.449,34.449,0,0,1,1.609,8.535c.1,1.45.13,2.9.217,4.353a.9.9,0,0,1-.391.837,2.8,2.8,0,0,1-2.033.609,3.959,3.959,0,0,0-.457-.065c-.884.022-.9-.362-.855-1.051.072-1.25.2-2.5.29-3.751.062-.834.094-1.667.156-2.5a6.468,6.468,0,0,0-.279-2.414c-.442-1.428-.881-2.856-1.356-4.277-.123-.377-.225-.819-.7-.993" transform="translate(33.734 28.676)" fill="#072434"/>
      <path id="Path_1883" data-name="Path 1883" d="M17.325,16.942c.149.591.308,1.182.449,1.776.71,3.059,1.345,6.143,2.142,9.181a63.369,63.369,0,0,0,3.918,10.989,41.891,41.891,0,0,0,6.89,10.188c1.381,1.533,2.62,3.2,3.922,4.8a3.746,3.746,0,0,1,.794,2.392c.018,1.385.058,2.773.087,4.161,0,.192,0,.388,0,.642-.736.185-1.432.37-2.131.533-3.875.906-7.749,1.8-11.62,2.715a11.092,11.092,0,0,0-1.374.457c-.754.283-1.207.069-1.352-.7-.134-.689-.25-1.385-.33-2.084A27.257,27.257,0,0,0,16.9,55.122a3.389,3.389,0,0,1-.228-1.283Q16.769,41.416,16.85,29q.038-4.724.105-9.445c.014-.79.094-1.58.145-2.374a1.358,1.358,0,0,1,.058-.232l.167-.007" transform="translate(43.765 44.463)" fill="#072434"/>
      <path id="Path_1884" data-name="Path 1884" d="M27.454,17.341c.014.413.047.823.043,1.236Q27.454,29.94,27.4,41.3c-.018,3.592-.054,7.18-.072,10.768a8.991,8.991,0,0,1-.536,2.838,32.236,32.236,0,0,0-1.356,5.23c-.138.892-.236,1.787-.355,2.682a3.615,3.615,0,0,1-.051.391c-.116.562-.373.732-.888.478a12.179,12.179,0,0,0-2.823-.892c-2.635-.58-5.284-1.124-7.923-1.7-1.631-.359-3.255-.75-4.878-1.131a3.008,3.008,0,0,1-.391-.149,27.3,27.3,0,0,1,.123-5.6A4.168,4.168,0,0,1,9.35,52.085c1.577-1.747,3.092-3.552,4.628-5.335.1-.116.2-.239.3-.352a44.4,44.4,0,0,0,8.7-14.443,104.613,104.613,0,0,0,3.864-13.088c.127-.526.272-1.047.406-1.569l.207.043" transform="translate(21.098 45.397)" fill="#072434"/>
      <path id="Path_1885" data-name="Path 1885" d="M10.185,70.137c-.022-.232-.065-.46-.065-.692,0-3.1-.007-6.209.011-9.311q.076-14.6.181-29.195c.036-4.2.167-8.405.254-12.609a7.675,7.675,0,0,1,.482-2.385q1.408-3.98,2.831-7.956a1.65,1.65,0,0,1,.729-1c.428.2.486.62.565.986.163.75.283,1.511.381,2.273.228,1.7.493,3.4.627,5.107.134,1.732.178,3.472.178,5.212,0,4.69-.029,9.38-.065,14.07-.054,6.778-.13,13.559-.192,20.34-.014,1.475-.025,2.95-.018,4.425a3.539,3.539,0,0,1-.261,1.345,41.8,41.8,0,0,1-2.979,5.81c-.594,1-1.254,1.968-1.9,2.939a7.994,7.994,0,0,1-.573.7c-.062-.018-.127-.033-.188-.051" transform="translate(26.555 18.331)" fill="#072434"/>
      <path id="Path_1886" data-name="Path 1886" d="M21.365,7.071a2.176,2.176,0,0,1,1.167,1.58q.277,1.555.536,3.121c.2,1.167.373,2.341.576,3.512a28.472,28.472,0,0,1,.272,4.936q.016,8.459-.014,16.915-.033,8.883-.112,17.77c-.033,3.3-.112,6.6-.181,9.906-.018.881-.076,1.761-.12,2.639a1.106,1.106,0,0,1-.076.257c-.348-.105-.457-.388-.58-.627-.627-1.211-1.276-2.414-1.841-3.653a53.026,53.026,0,0,1-2.465-6.542,13.313,13.313,0,0,1-.547-3.711c-.051-4.226-.076-8.452-.054-12.682.022-4.248.1-8.5.174-12.747q.1-5.187.265-10.366a14.383,14.383,0,0,1,.877-4.842c.587-1.5,1.095-3.019,1.653-4.527a9.869,9.869,0,0,1,.471-.939" transform="translate(47.024 18.557)" fill="#072434"/>
      <path id="Path_1887" data-name="Path 1887" d="M10.857,45.3c.214-1.018.4-1.917.587-2.816a3.167,3.167,0,0,0,.091-.518c.011-.362-.138-.536-.5-.555-.261-.011-.526.051-.786.054s-.5-.015-.866-.029c.134-.482.232-.855.341-1.225.3-1.008.671-2,.9-3.026a24.409,24.409,0,0,0,.33-4.6c.022-.547.062-1.1.083-1.645a.6.6,0,0,1,.431-.6,5.027,5.027,0,0,1,.823-.225,13.165,13.165,0,0,1,4.523.018c.152.025.3.069.449.105a.77.77,0,0,1,.678.823c.007,1.432.072,2.86.08,4.288a3.508,3.508,0,0,0,.243,1.283c.4,1.022.776,2.055,1.156,3.084a8.223,8.223,0,0,1,.265.815c.145.544.072.649-.5.739-.3.047-.613.058-.917.094-.631.08-.714.178-.613.8.13.779.283,1.555.42,2.334.1.555.04.671-.529.732-.765.083-1.533.134-2.3.145-1.211.022-2.417,0-3.628-.011-.214,0-.428-.04-.761-.069" transform="translate(24.622 78.563)" fill="#072434"/>
      <path id="Path_1888" data-name="Path 1888" d="M23.167,64.416A54.7,54.7,0,0,1,11.873,44.993c.236-.018.406-.04.573-.04,1.566,0,3.128.007,4.694-.011a.9.9,0,0,1,.859.449,55.8,55.8,0,0,0,5.259,6.694,3.051,3.051,0,0,1,.783,1.979,22.8,22.8,0,0,1-.319,4.273c-.188,1.374-.4,2.747-.544,4.125a19.266,19.266,0,0,0-.011,1.954" transform="translate(31.16 117.946)" fill="#072434"/>
      <path id="Path_1889" data-name="Path 1889" d="M19.454,44.949c1.921,0,3.726.007,5.531-.007.337,0,.439.236.591.446.9,1.225,1.772,2.472,2.707,3.668.8,1.022,1.645,2.012,2.519,2.972a2.84,2.84,0,0,1,.815,2.026c-.029,1.142-.08,2.287-.2,3.421-.174,1.6-.446,3.186-.62,4.781a17.994,17.994,0,0,0-.014,2.026c-.928-.522-4.708-5.585-6.673-8.974a54.623,54.623,0,0,1-4.654-10.359" transform="translate(51.055 117.946)" fill="#072434"/>
      <path id="Path_1890" data-name="Path 1890" d="M26.037,44.573a22.79,22.79,0,0,1-7.089-.022c.04-1.055.54-2.044.638-3.088-.848-.453-1.838.036-2.686-.533.163-.417.3-.8.471-1.182.58-1.279,1.163-2.562,1.761-3.835a2.661,2.661,0,0,0,.257-1.207c-.011-1.055,0-2.109.029-3.168.018-.736.058-.768.747-.946a11.086,11.086,0,0,1,5.147-.236c.66.141.747.236.754.931.022,1.319.014,2.642.047,3.961a3.524,3.524,0,0,0,.178,1.026c.406,1.207.863,2.4,1.261,3.61.359,1.076.268,1.178-.837,1.2a5.976,5.976,0,0,0-.721.047c-.428.062-.533.188-.468.623.1.631.239,1.25.355,1.877.058.3.1.605.156.935" transform="translate(44.353 79.136)" fill="#072434"/>
      <path id="Path_1891" data-name="Path 1891" d="M21.076,51.25c.417-.08.83-.163,1.3-.254-.46-1.319-.9-2.573-1.363-3.885-1.055.051-2.059.094-3.113.145-.319,1.258-.616,2.443-.935,3.7.243.069.42.13.6.174a1.583,1.583,0,0,1,.529.192,3.481,3.481,0,0,1-1.25.094c-.42.015-.837,0-1.247,0-.152.391-.352.5-.656.319a3.053,3.053,0,0,1-.667-.536c-1.091-1.149-2.225-2.262-3.226-3.487a1.433,1.433,0,0,0-1.819-.511V51c.482.087.913.167,1.345.246l-.022.138H6.165c.475-.377,1.029-.13,1.486-.471.08-2.722.069-5.505.014-8.347l-1.4-.225c0-.051,0-.1,0-.145a2.215,2.215,0,0,1,.4-.065c1.41,0,2.82-.015,4.226.033a6.644,6.644,0,0,1,1.751.283,1.577,1.577,0,0,1,.957,2.461,4.535,4.535,0,0,1-1.537,1.555,1.811,1.811,0,0,0,.152.359c.859,1.3,1.714,2.613,2.6,3.9.417.605.953.555,1.218-.116,1.018-2.6,2.012-5.212,3.012-7.818a1,1,0,0,0,.014-.228l-.971-.257a12.53,12.53,0,0,1,3.878.007c-.294.08-.584.163-.921.257a3.942,3.942,0,0,0,.112.453c.881,2.392,1.772,4.784,2.646,7.18.214.591.526.993,1.218.96.1,0,.21.091.29.239H21.09c0-.051-.007-.1-.014-.149M9.239,42.465V46.7a3.053,3.053,0,0,0,2.475-.841,1.822,1.822,0,0,0-.631-3.077,4.534,4.534,0,0,0-1.845-.315m11.631,4.186c-.439-1.279-.863-2.515-1.337-3.9-.5,1.374-.946,2.6-1.417,3.9Z" transform="translate(16.179 110.569)" fill="#072434"/>
      <path id="Path_1892" data-name="Path 1892" d="M20.425,34.037c.083.605.145,1.214.254,1.812a19.886,19.886,0,0,0,.464,2.059,3.367,3.367,0,0,0,2.5,2.483c1.171.29,2.37.453,3.559.667a.867.867,0,0,1,.4.12c-.649.091-1.3.159-1.943.279a21.071,21.071,0,0,0-2.117.489,3.3,3.3,0,0,0-2.359,2.374c-.275,1.015-.431,2.062-.634,3.1a4.772,4.772,0,0,1-.188.826c-.152-.939-.275-1.881-.453-2.809-.5-2.5-1.522-3.363-3.976-3.842-.649-.127-1.308-.188-1.957-.286-.257-.04-.511-.094-.819-.152l2.99-.478A4.141,4.141,0,0,0,19.9,36.922c.152-.953.308-1.91.46-2.863l.069-.022" transform="translate(34.514 89.327)" fill="#072434"/>
      <path id="Path_1893" data-name="Path 1893" d="M11.507,34.549c.018.232.047.468.054.7.062,3.3.149,6.6.181,9.9a47.013,47.013,0,0,0,2.312,14.2c.1.308.2.62.3.975H11.746a109.731,109.731,0,0,1-.239-25.78" transform="translate(28.518 90.671)" fill="#072434"/>
      <path id="Path_1894" data-name="Path 1894" d="M19.326,60.323a110.9,110.9,0,0,1-.25-25.777c.022.21.062.417.065.627.065,3.233.167,6.466.181,9.7a47.539,47.539,0,0,0,2.41,14.784c.054.167.109.333.156.5a.645.645,0,0,1-.007.159Z" transform="translate(48.418 90.663)" fill="#072434"/>
      <path id="Path_1895" data-name="Path 1895" d="M25.733,42.568c-.424-.105-.732-.178-1.037-.254.41-.275.837-.149,1.247-.167.439-.022.881-.007,1.323-.007h1.272l.029.159-.931.25a2,2,0,0,0,.058.381c.9,2.436,1.809,4.864,2.693,7.3.21.58.522.942,1.178.917.109,0,.217.076.3.232H27.592c.366-.42.928-.1,1.319-.486-.424-1.221-.863-2.479-1.319-3.791-1.058.047-2.059.091-3.124.141-.319,1.269-.623,2.475-.935,3.722l1.163.294a1.228,1.228,0,0,0-.029.123H21.26c.2-.3.442-.232.638-.265a.824.824,0,0,0,.736-.551c1.015-2.649,2.048-5.292,3.1-8m1.714,4.088c-.449-1.3-.863-2.5-1.279-3.7-.047,0-.1,0-.145,0-.431,1.211-.906,2.407-1.323,3.708Z" transform="translate(55.795 110.577)" fill="#072434"/>
      <path id="Path_1896" data-name="Path 1896" d="M5.262,42.579c-.5-.087-.957-.167-1.406-.243l.014-.145a2.663,2.663,0,0,1,.41-.062c1.3,0,2.6-.011,3.9.04a5.967,5.967,0,0,1,1.616.29,1.848,1.848,0,0,1,1.221,2.624,2.7,2.7,0,0,1-1.167,1.472,17.833,17.833,0,0,1-1.914.863,1.222,1.222,0,0,1-.406.007c.112-.341.388-.337.587-.431A2.459,2.459,0,0,0,9.63,44.573a1.872,1.872,0,0,0-1.49-1.921,9.2,9.2,0,0,0-1.2-.159,62.386,62.386,0,0,0-.054,8.517c.522.072,1.069.152,1.751.246a24,24,0,0,1-4.766.13c.116-.312.4-.2.605-.246.236-.051.471-.083.776-.138.083-2.809.072-5.592.014-8.423" transform="translate(10.12 110.566)" fill="#072434"/>
      <path id="Path_1897" data-name="Path 1897" d="M20.252,42.972c.105-.366.217-.743.326-1.124.062.011.12.025.181.04-.094,1.294-.188,2.591-.286,3.947-.312-.149-.243-.377-.243-.544a1.569,1.569,0,0,0-.841-1.4A4.267,4.267,0,0,0,15,43.631,3.8,3.8,0,0,0,13.2,48.216a4.913,4.913,0,0,0,5.081,3.494,6.726,6.726,0,0,0,2.664-.62.516.516,0,0,1-.4.656,13.271,13.271,0,0,1-1.841.489,9.408,9.408,0,0,1-3.414-.091,5.172,5.172,0,0,1-2.378-1.221,4.47,4.47,0,0,1,.192-6.8,6.341,6.341,0,0,1,4.556-1.4c.83.04,1.66.152,2.584.243" transform="translate(30.041 109.826)" fill="#072434"/>
      <path id="Path_1898" data-name="Path 1898" d="M28.159,51.088c-.007.533-.344.642-.652.754a8.363,8.363,0,0,1-3.374.482,8.278,8.278,0,0,1-2.138-.33A4.522,4.522,0,0,1,20.323,44.1a6.329,6.329,0,0,1,4.563-1.374c.83.047,1.656.159,2.533.243.105-.352.221-.736.333-1.12.3.435.083.844.08,1.254-.007.46-.069.921-.1,1.381-.025.431-.036.863-.054,1.312-.337-.051-.272-.275-.268-.417a1.694,1.694,0,0,0-.993-1.584,4.307,4.307,0,0,0-3.932-.315,3.794,3.794,0,0,0-2.117,4.712A4.929,4.929,0,0,0,25.5,51.707a7.353,7.353,0,0,0,2.657-.62" transform="translate(48.896 109.829)" fill="#072434"/>
      <path id="Path_1899" data-name="Path 1899" d="M18.079,43.319a10.131,10.131,0,0,0-2.838.333.775.775,0,0,0-.649.721,1.09,1.09,0,0,1-.337.841,7.078,7.078,0,0,1,.054-1.682c.011-.522.043-1.044.065-1.638.449.174.254.555.384.794a43.991,43.991,0,0,0,8.633.058c.091-.243.188-.507.286-.772a3.072,3.072,0,0,1,.011,1.678,7.6,7.6,0,0,1-.232,1.616c-.058,0-.112-.007-.17-.015V43.9a9.736,9.736,0,0,0-3.432-.58,69.8,69.8,0,0,0-.022,8.264c.5.265,1.116.033,1.587.439H16.383c.29-.315.591-.228.848-.268.283-.043.565-.08.837-.12a64.877,64.877,0,0,0,.011-8.314" transform="translate(37.295 109.95)" fill="#072434"/>
      <path id="Path_1900" data-name="Path 1900" d="M27.289,51a7.842,7.842,0,0,0,2.631-.417.956.956,0,0,0,.685-.729,3.631,3.631,0,0,1,.442-1.051,7.992,7.992,0,0,1-.265,2.164,8.281,8.281,0,0,1-.391,2.073c-.3-.468.036-.979-.185-1.533-1.939-.152-3.925-.062-5.911-.141.377-.37.928-.112,1.374-.439V42.577c-.489-.08-.931-.156-1.439-.243a19.415,19.415,0,0,1,4.607-.134c-.156.323-.457.2-.685.246-.257.058-.522.091-.848.145-.123,2.78-.076,5.56-.014,8.412" transform="translate(63.589 110.562)" fill="#072434"/>
      <path id="Path_1901" data-name="Path 1901" d="M23.94,36.781c-.4.065-.8.134-1.2.2-2.1.344-2.776,1.029-3.106,3.146-.062.391-.116.783-.2,1.319-.083-.257-.141-.384-.167-.518-.1-.54-.17-1.087-.286-1.624a2.647,2.647,0,0,0-2.207-2.171c-.515-.109-1.04-.185-1.558-.275a.716.716,0,0,1-.413-.185c.134-.025.272-.051.406-.08.667-.13,1.345-.221,2-.4a2.266,2.266,0,0,0,1.649-1.653c.163-.591.265-1.2.388-1.8a1.317,1.317,0,0,1,.2-.576c.022.149.047.3.072.453.058.37.105.739.181,1.105a2.886,2.886,0,0,0,2.773,2.718c.486.094.975.152,1.461.228l0,.112" transform="translate(38.849 84.409)" fill="#072434"/>
      <path id="Path_1902" data-name="Path 1902" d="M18.45,42.574l-1.356-.246a2.368,2.368,0,0,1,1.359-.181c.5-.018,1.011,0,1.515,0h1.573c-.515.42-1.047.232-1.45.468a73.786,73.786,0,0,0,.014,8.4l1.294.225-.011.138a5.19,5.19,0,0,1-1.363.043c-.5.014-1.011,0-1.515,0a11.587,11.587,0,0,1-1.414-.058c.359-.348.873-.141,1.345-.446.091-2.718.08-5.5.007-8.336" transform="translate(44.862 110.576)" fill="#072434"/>
      <path id="Path_1903" data-name="Path 1903" d="M18.327,43.576c-.163.493-.33.989-.486,1.461A37.583,37.583,0,0,1,11.926,45c.924-.286.942-.312.942-1.337q.005-1.914,0-3.827a5.089,5.089,0,0,0-.014-.526c-.058-.529-.138-.616-.652-.765a.373.373,0,0,1-.257-.188h5.723c.033.457.065.9.1,1.352l-.116.036a1.338,1.338,0,0,1-.152-.283,1,1,0,0,0-1.044-.747c-.681-.018-1.363,0-2.044-.011-.3,0-.446.13-.446.435,0,.7,0,1.4,0,2.189a14.587,14.587,0,0,0,2.4-.044c.449-.062.507-.475.649-.852A4.87,4.87,0,0,1,17,42.756c-.152-1.037-.841-1.026-1.54-1.011-.46.011-.917,0-1.4,0a1.975,1.975,0,0,0-.091.41c-.007.681,0,1.366,0,2.048,0,.315.12.515.449.511.815-.014,1.627-.022,2.439-.069a1.294,1.294,0,0,0,1.015-.656c.116-.174.228-.348.344-.522l.116.105" transform="translate(31.299 100.672)" fill="#072434"/>
      <path id="Path_1904" data-name="Path 1904" d="M15.734,28.06a4.488,4.488,0,0,1,.076.533c.007,1.011.014,2.022,0,3.034q-.076,6.236-.163,12.468c-.011.725-.014,1.45-.04,2.175a2.287,2.287,0,0,1-.21.917,1.427,1.427,0,0,1-.13-.3c-.105-.627-.217-1.254-.29-1.888a1.516,1.516,0,0,1,.069-.841,3.481,3.481,0,0,0,.21-2.182c-.174-1.881-.355-3.762-.489-5.643a21.657,21.657,0,0,1-.083-3.356c.13-1.479.435-2.947.678-4.418a2.431,2.431,0,0,1,.21-.518l.159.018" transform="translate(38.443 73.594)" fill="#072434"/>
      <path id="Path_1905" data-name="Path 1905" d="M20.778,38.331c.072.649.145,1.276.214,1.9l-.091.043c-.08-.109-.163-.214-.239-.323a9.062,9.062,0,0,0-.605-.855,1.425,1.425,0,0,0-1.327-.424.95.95,0,0,0-.841.645.924.924,0,0,0,.25,1.029,6.3,6.3,0,0,0,.794.584c.536.348,1.095.656,1.613,1.022a1.692,1.692,0,0,1,.743,1.468,1.829,1.829,0,0,1-1.58,1.9,3.54,3.54,0,0,1-1.627-.109c-.3-.087-.634-.286-.935.265-.1-.522-.163-.855-.221-1.192a3.611,3.611,0,0,1-.058-1.073c.083.109.163.221.246.33a7.518,7.518,0,0,0,.819,1.018,1.923,1.923,0,0,0,.877.4,1.218,1.218,0,0,0,1.366-.689,1.2,1.2,0,0,0-.37-1.424c-.391-.315-.841-.558-1.261-.837a10.79,10.79,0,0,1-1.029-.71A1.627,1.627,0,0,1,17,39.5a1.577,1.577,0,0,1,1.435-1.182,4.725,4.725,0,0,1,1.421.141c.478.1.471.141.924-.13" transform="translate(44.215 100.538)" fill="#072434"/>
      <path id="Path_1906" data-name="Path 1906" d="M15.707,45.411c-.13-.772-.246-1.453-.362-2.138.033-.014.069-.029.1-.047.083.109.167.214.246.323a5.862,5.862,0,0,0,.761.982,2.242,2.242,0,0,0,.989.46,1.2,1.2,0,0,0,1.312-.671,1.14,1.14,0,0,0-.337-1.424,14.926,14.926,0,0,0-1.258-.844,11.706,11.706,0,0,1-1.08-.75,1.626,1.626,0,0,1-.478-1.8A1.647,1.647,0,0,1,17,38.34a2.789,2.789,0,0,1,1.49.152c.435.152.439.141.881-.149.069.66.138,1.287.2,1.91-.043.011-.091.025-.134.04-.149-.257-.283-.522-.446-.768a1.621,1.621,0,0,0-1.606-.826.985.985,0,0,0-.906.656.939.939,0,0,0,.3,1.073,5.455,5.455,0,0,0,.743.536c.428.272.877.507,1.3.786a1.955,1.955,0,0,1,.953,2.421,2.066,2.066,0,0,1-2.258,1.221,4.027,4.027,0,0,1-.9-.181.776.776,0,0,0-.9.2" transform="translate(40.272 100.507)" fill="#072434"/>
      <path id="Path_1907" data-name="Path 1907" d="M17.819,38.354c.065.634.13,1.254.2,1.874a1.308,1.308,0,0,0-.127.047c-.123-.217-.239-.435-.366-.645a1.7,1.7,0,0,0-1.606-.964,1.012,1.012,0,0,0-.986.642.958.958,0,0,0,.315,1.124,5.516,5.516,0,0,0,.7.5c.449.279.917.529,1.352.823a1.935,1.935,0,0,1,.928,2.374,2.045,2.045,0,0,1-2.178,1.254c-.348-.025-.689-.145-1.037-.185a7.91,7.91,0,0,0-.877,0c-.043-.232-.112-.565-.17-.9a4.03,4.03,0,0,1-.072-1.084c.08.1.163.192.239.294a9.848,9.848,0,0,0,.848,1.08,1.457,1.457,0,0,0,1.41.359,1.144,1.144,0,0,0,.7-1.8,2.8,2.8,0,0,0-.732-.649c-.475-.319-.979-.591-1.453-.906a1.885,1.885,0,0,1-.877-1.113,1.674,1.674,0,0,1,1.4-2.142,4.018,4.018,0,0,1,1.359.109c.576.13.569.167,1.04-.083" transform="translate(36.413 100.534)" fill="#072434"/>
      <path id="Path_1908" data-name="Path 1908" d="M20.3,36.863c-.576.105-1.091.2-1.606.294a2.265,2.265,0,0,0-1.972,2.012,6.942,6.942,0,0,1-.333,1.337c-.062-.37-.12-.743-.188-1.113a2.341,2.341,0,0,0-2.24-2.283c-.424-.091-.855-.149-1.417-.243.685-.13,1.232-.225,1.78-.337a2.142,2.142,0,0,0,1.79-1.79c.1-.493.185-.989.308-1.638.076.294.12.449.156.605.091.428.159.863.268,1.287a1.967,1.967,0,0,0,1.522,1.486c.613.156,1.24.25,1.932.384" transform="translate(32.921 86.871)" fill="#072434"/>
      <path id="Path_1909" data-name="Path 1909" d="M15.738,31.958a.953.953,0,0,1,.41,1.178.687.687,0,0,1-.478.239c-.243.018-.348-.2-.3-.406.072-.352.04-.754.373-1.011" transform="translate(40.299 83.871)" fill="#072434"/>
      <line id="Line_1" data-name="Line 1" y2="169.72" transform="translate(133.19 16.72)" fill="none" stroke="#072434" stroke-width="1"/>
    </g>
  </g>
  <text id="ESSS" transform="translate(149.04 68.02)" fill="#072434" font-size="33" font-family="SegoeUI-Semibold, Segoe UI" font-weight="600"><tspan x="0" y="0">ESSS</tspan></text>
  <text id="SPACE" transform="translate(149.04 111.931)" fill="#072434" font-size="33" font-family="SegoeUI-Semibold, Segoe UI" font-weight="600"><tspan x="0" y="0">S</tspan><tspan y="0" letter-spacing="-0.068em">P</tspan><tspan y="0" letter-spacing="-0.014em">A</tspan><tspan y="0">CE</tspan></text>
  <g id="Group_98" data-name="Group 98" transform="translate(0 0)">
    <g id="Group_97" data-name="Group 97" clip-path="url(#clip-path)">
      <text id="PRACTICALS" transform="translate(149.04 155.845)" fill="#072434" font-size="33" font-family="SegoeUI-Semibold, Segoe UI" font-weight="600"><tspan x="0" y="0">PR</tspan><tspan y="0" letter-spacing="-0.014em">A</tspan><tspan y="0">CTICALS</tspan></text>
    </g>
  </g>
</svg>
