<svg id="Group_5" data-name="Group 5" xmlns="http://www.w3.org/2000/svg" xmlns:xlink="http://www.w3.org/1999/xlink" width="299.713" height="266.652" viewBox="0 0 299.713 266.652">
  <defs>
    <clipPath id="clip-path">
      <rect id="Rectangle_625" data-name="Rectangle 625" width="299.713" height="266.652" fill="none" stroke="#072434" stroke-width="1"/>
    </clipPath>
  </defs>
  <g id="Group_4" data-name="Group 4" clip-path="url(#clip-path)">
    <path id="Path_1" data-name="Path 1" d="M25.709,94.084C69.3,69.39,114.306,46.07,159.6,24.662,116,49.344,71.01,72.69,25.709,94.084" transform="translate(37.518 35.99)" fill="none" stroke="#072434" stroke-width="1"/>
    <path id="Path_2" data-name="Path 2" d="M.561,125.782,68.974,257.73l148.477,6.724,80.063-125.221L229.1,7.285,80.624.561Z" transform="translate(0.818 0.819)" fill="none" stroke="#072434" stroke-linecap="round" stroke-linejoin="round" stroke-width="1.122"/>
    <path id="Path_3" data-name="Path 3" d="M25.709,52.89c4.065,42.541,6.254,85.739,6.566,128.472C28.227,138.821,26,95.623,25.709,52.89" transform="translate(37.518 77.183)" fill="none" stroke="#072434" stroke-width="1"/>
    <path id="Path_4" data-name="Path 4" d="M.561,51.478,31.123,52.5c10.366.389,20.86.654,31.354,1.244a1.222,1.222,0,0,1,1.141,1.149C65.4,86.9,68.711,151.344,70.189,183.364a1.215,1.215,0,0,1-2.292.62c-11.487-22.156-22.7-44.445-33.939-66.571Zm0,0c20.452,38.6,49.624,93.282,69.493,131.387l-2.292.622-3.443-64.228L61.2,55.015l1.141,1.146C44.659,55,18.551,52.885.561,51.478" transform="translate(0.819 75.123)" fill="none" stroke="#072434" stroke-width="1"/>
    <path id="Path_5" data-name="Path 5" d="M113.671,3.295l34.637,65.3c11.6,21.942,23.364,43.936,34.849,66.092a1.209,1.209,0,0,1-1.817,1.51C156.01,116.522,105.245,76.713,80.118,56.8a1.223,1.223,0,0,1-.278-1.6c5.563-8.915,11.392-17.651,17.05-26.344Zm0,0C104.426,18.931,91.2,41.3,81.9,56.485l-.28-1.594L132.327,94.46l50.5,39.831-1.82,1.508C161.433,97.8,133.338,42.032,113.671,3.295" transform="translate(116.249 4.808)" fill="none" stroke="#072434" stroke-width="1"/>
    <path id="Path_6" data-name="Path 6" d="M182.311,8C138.658,6.415,76.72,4.324,33.78,2.487L34.385.2,92.3,29.69l57.76,29.785-1.579.435C158,44.964,172.415,23.094,182.311,8m0,0-15.6,26.3c-5.322,8.9-10.61,17.97-16.175,26.885a1.22,1.22,0,0,1-1.581.438C120.056,46.993,62.03,17.27,33.283,2.354A1.209,1.209,0,0,1,32.757.726,1.223,1.223,0,0,1,33.888.07C58.821,1.2,83.719,2.647,108.5,3.963Z" transform="translate(47.609 0.1)" fill="none" stroke="#072434" stroke-width="1"/>
    <path id="Path_7" data-name="Path 7" d="M.561,126.5c18.155.578,44.123,1.419,61.916,2.265l-1.264,1.04,8.942-64.373L79.419,1.112l2.228.824C58.537,37.891,24.279,90.105.561,126.5m0,0L39.782,63.854C52.979,42.835,66.156,21.652,79.6.628a1.216,1.216,0,0,1,2.228.824C77.432,33.553,68.305,98.1,63.608,130.145a1.221,1.221,0,0,1-1.267,1.04c-10.494-.59-20.948-1.5-31.295-2.272Z" transform="translate(0.819 0.098)" fill="none" stroke="#072434" stroke-width="1"/>
    <path id="Path_8" data-name="Path 8" d="M181.367,104.06c-34.755-24.866-68.78-51.574-101.216-79.4,34.748,24.878,68.79,51.562,101.216,79.4" transform="translate(116.966 35.991)" fill="none" stroke="#072434" stroke-width="1"/>
    <path id="Path_9" data-name="Path 9" d="M168.815,56.947C143.8,99.515,116.882,141.6,88.752,182.168c25.024-42.559,51.921-84.657,80.063-125.221" transform="translate(129.518 83.104)" fill="none" stroke="#072434" stroke-width="1"/>
    <path id="Path_10" data-name="Path 10" d="M159.731,24.594,151.76,173.046,25.843,94.015" transform="translate(37.713 35.89)" fill="none" stroke="#072434" stroke-linecap="round" stroke-linejoin="round" stroke-width="0.38"/>
    <path id="Path_11" data-name="Path 11" d="M32.408,181.294l119.353-49.442L25.842,52.822" transform="translate(37.712 77.084)" fill="none" stroke="#072434" stroke-linecap="round" stroke-linejoin="round" stroke-width="0.38"/>
    <path id="Path_12" data-name="Path 12" d="M85.014,24.594,77.043,173.046,186.229,103.99" transform="translate(112.43 35.89)" fill="none" stroke="#072434" stroke-linecap="round" stroke-linejoin="round" stroke-width="0.38"/>
    <path id="Path_13" data-name="Path 13" d="M106.166,182.1,77.043,125.931,186.23,56.878" transform="translate(112.43 83.004)" fill="none" stroke="#072434" stroke-linecap="round" stroke-linejoin="round" stroke-width="0.38"/>
    <path id="Path_14" data-name="Path 14" d="M80.624.561,167.3,167.735,68.976,257.729.56,125.782Z" transform="translate(0.818 0.818)" fill="none" stroke="#072434" stroke-linecap="round" stroke-linejoin="round" stroke-width="0.19"/>
    <path id="Path_15" data-name="Path 15" d="M33.115.561l86.679,167.175,130.211-28.5L181.592,7.287Z" transform="translate(48.326 0.818)" fill="none" stroke="#072434" stroke-linecap="round" stroke-linejoin="round" stroke-width="0.19"/>
  </g>
</svg>
