<svg xmlns="http://www.w3.org/2000/svg" width="54.877" height="55.651" viewBox="0 0 54.877 55.651">
  <path id="Path_708" data-name="Path 708" d="M35.436,0,21.744,2.793l.03.147L12.348,4.863l0,.009L9.269,5.5l-.034-.158L3.657,6.481,2.08,20.367l.151.019L1.145,29.943l.009,0L.8,33.069l-.16-.017L0,38.711,12.719,44.5l.061-.134,8.757,3.984,0-.009,2.862,1.3-.065.145,5.184,2.359,9.436-10.307-.112-.1,6.5-7.1-.007-.006,2.124-2.32.117.108,3.847-4.2-6.887-12.16-.132.074-4.74-8.371-.009,0L38.1,5.035l.138-.08Z" transform="translate(1.613 1.688)" fill="none" stroke="#adadad" stroke-width="3"/>
</svg>
