<svg width="185" height="64" viewBox="0 0 185 64" fill="none" xmlns="http://www.w3.org/2000/svg">
<path d="M0 49.5C0 41.4919 6.49187 35 14.5 35H170.5C178.508 35 185 41.4919 185 49.5C185 57.5081 178.508 64 170.5 64H14.5C6.49187 64 0 57.5081 0 49.5Z" fill="#072434"/>
<path d="M0.306825 41.7472C-0.967199 33.8411 4.40919 26.3991 12.3153 25.1251L166.328 0.306837C174.235 -0.967187 181.677 4.4092 182.951 12.3153C184.225 20.2215 178.848 27.6635 170.942 28.9375L16.929 53.7557C9.02284 55.0298 1.58085 49.6534 0.306825 41.7472Z" fill="#072434"/>
</svg>
