<svg id="Group_94" data-name="Group 94" xmlns="http://www.w3.org/2000/svg" xmlns:xlink="http://www.w3.org/1999/xlink" width="184.33" height="184.33" viewBox="0 0 184.33 184.33">
  <defs>
    <clipPath id="clip-path">
      <rect id="Rectangle_657" data-name="Rectangle 657" width="184.33" height="184.33" fill="none"/>
    </clipPath>
  </defs>
  <g id="Group_93" data-name="Group 93" transform="translate(0 0)">
    <g id="Group_92" data-name="Group 92" clip-path="url(#clip-path)">
      <path id="Path_1877" data-name="Path 1877" d="M13.755,70.016V82.493H7.911V48.849H20.782q5.636,0,8.954,2.938a9.882,9.882,0,0,1,3.315,7.772,9.548,9.548,0,0,1-3.246,7.7q-3.25,2.755-9.093,2.754Zm0-4.715h7.027a6.922,6.922,0,0,0,4.758-1.467,5.4,5.4,0,0,0,1.641-4.242,5.815,5.815,0,0,0-1.662-4.354,6.415,6.415,0,0,0-4.576-1.677H13.755ZM62.817,48.849V71.332a10.926,10.926,0,0,1-3.432,8.493,13.035,13.035,0,0,1-9.141,3.131q-5.775,0-9.174-3.086t-3.4-8.56V48.849H43.5V71.355a7.146,7.146,0,0,0,1.71,5.152,6.672,6.672,0,0,0,5.037,1.779q6.75,0,6.747-7.115V48.849ZM69.1,82.493V48.849H80.635q5.707,0,8.687,2.286T92.3,57.954a7.274,7.274,0,0,1-1.249,4.158A8.033,8.033,0,0,1,87.4,64.978a7.431,7.431,0,0,1,4.218,2.783,8.116,8.116,0,0,1,1.49,4.911,8.956,8.956,0,0,1-3.038,7.28q-3.038,2.544-8.7,2.541Zm5.845-19.48H80.68a6.629,6.629,0,0,0,4.263-1.235,4.236,4.236,0,0,0,1.536-3.5,4.287,4.287,0,0,0-1.421-3.6,7.163,7.163,0,0,0-4.423-1.111H74.948Zm0,4.3V77.826h6.494a6.279,6.279,0,0,0,4.3-1.364,4.784,4.784,0,0,0,1.548-3.79q0-5.245-5.362-5.36Zm29.9,10.514h15.274v4.667H99.007V48.849h5.845Zm25.975,4.667H125V48.847h5.823Zm32.908-10.953a12.141,12.141,0,0,1-3.974,8.4q-3.464,3.017-9.219,3.017a13.126,13.126,0,0,1-7.084-1.906,12.52,12.52,0,0,1-4.724-5.419A19.526,19.526,0,0,1,137,67.474V64.331a19.684,19.684,0,0,1,1.689-8.388,12.712,12.712,0,0,1,4.839-5.594,13.514,13.514,0,0,1,7.292-1.963,13,13,0,0,1,8.966,3.017,12.6,12.6,0,0,1,3.951,8.536h-5.823q-.416-3.626-2.114-5.233a6.991,6.991,0,0,0-4.98-1.605,6.829,6.829,0,0,0-5.859,2.787q-2.046,2.784-2.09,8.176v2.983q0,5.46,1.951,8.326a6.478,6.478,0,0,0,5.72,2.869,7.56,7.56,0,0,0,5.176-1.548q1.734-1.548,2.2-5.154ZM11.061,117.376H23.6v3.831H6.263V93.592h4.8ZM43.456,107.01H32.113v8.5H45.371v3.831H27.315V91.724H45.238v3.869H32.113v7.624H43.456Zm26.932,3.339a9.966,9.966,0,0,1-3.26,6.893,11.129,11.129,0,0,1-7.569,2.477,10.77,10.77,0,0,1-5.814-1.567,10.26,10.26,0,0,1-3.879-4.447,16.054,16.054,0,0,1-1.421-6.695v-2.58a16.18,16.18,0,0,1,1.383-6.884A10.458,10.458,0,0,1,53.8,92.957a11.086,11.086,0,0,1,5.983-1.612,10.692,10.692,0,0,1,7.361,2.474,10.344,10.344,0,0,1,3.241,7.008H65.609a6.822,6.822,0,0,0-1.734-4.294,5.738,5.738,0,0,0-4.089-1.318A5.6,5.6,0,0,0,54.978,97.5q-1.677,2.286-1.715,6.709v2.451q0,4.478,1.6,6.833a5.317,5.317,0,0,0,4.693,2.355,6.213,6.213,0,0,0,4.249-1.271,6.63,6.63,0,0,0,1.8-4.23ZM94.118,95.594h-8.61V119.34H80.745V95.594H72.211V91.724H94.118Zm23.861-3.869v18.453a8.974,8.974,0,0,1-2.818,6.972,10.7,10.7,0,0,1-7.5,2.57,10.773,10.773,0,0,1-7.531-2.534,9.009,9.009,0,0,1-2.787-7.027V91.724h4.779V110.2a5.864,5.864,0,0,0,1.4,4.23,5.467,5.467,0,0,0,4.134,1.462q5.535,0,5.539-5.842V91.724Zm15.305,16.994h-5.348V119.34h-4.8V91.724h9.712q4.779,0,7.378,2.145a7.591,7.591,0,0,1,2.6,6.208,7.78,7.78,0,0,1-1.338,4.641,8.511,8.511,0,0,1-3.728,2.876l6.2,11.5v.246h-5.14Zm-5.348-3.869h4.932a5.49,5.49,0,0,0,3.793-1.223,4.272,4.272,0,0,0,1.366-3.349,4.542,4.542,0,0,0-1.261-3.432A5.357,5.357,0,0,0,133,95.594h-5.064Zm35.619,2.162h-11.34v8.5h13.256v3.831H147.416V91.724h17.923v3.869H152.215v7.624h11.34ZM25.144,154a4.354,4.354,0,0,0-1.672-3.666,20.109,20.109,0,0,0-6.028-2.6,29.077,29.077,0,0,1-6.931-2.921q-4.93-3.1-4.927-8.073a8.782,8.782,0,0,1,3.552-7.18,14.381,14.381,0,0,1,9.224-2.821,15.584,15.584,0,0,1,6.709,1.385,11.007,11.007,0,0,1,4.629,3.951,10.123,10.123,0,0,1,1.684,5.68H25.144a5.652,5.652,0,0,0-1.77-4.419,7.308,7.308,0,0,0-5.064-1.6,7.642,7.642,0,0,0-4.767,1.314,4.372,4.372,0,0,0-1.7,3.664,3.956,3.956,0,0,0,1.832,3.306,21.117,21.117,0,0,0,6.043,2.575,27.768,27.768,0,0,1,6.759,2.847,10.776,10.776,0,0,1,3.738,3.664,9.54,9.54,0,0,1,1.189,4.841,8.581,8.581,0,0,1-3.456,7.168q-3.454,2.662-9.37,2.661a17.61,17.61,0,0,1-7.192-1.447,12.073,12.073,0,0,1-5.1-4,9.965,9.965,0,0,1-1.82-5.942h6.265a5.827,5.827,0,0,0,2.03,4.753,8.888,8.888,0,0,0,5.818,1.684A7.714,7.714,0,0,0,23.5,157.5a4.267,4.267,0,0,0,1.648-3.5m32.882-6.81H43.219v11.092h17.3v5H36.954V127.236h23.4v5.052H43.219v9.953H58.026Zm20.9,2.228H71.941v13.865H65.676V127.236H78.351q6.241,0,9.633,2.8t3.392,8.1A10.145,10.145,0,0,1,89.63,144.2a11.08,11.08,0,0,1-4.865,3.755l8.1,15.011v.322H86.152Zm-6.981-5.052h6.437a7.17,7.17,0,0,0,4.951-1.6,5.568,5.568,0,0,0,1.782-4.371,5.924,5.924,0,0,0-1.646-4.481,7,7,0,0,0-4.915-1.634H71.941Zm32.039,18.917H97.741V127.236h6.239ZM132.8,147.192H117.993v11.092H135.3v5H111.73V127.236h23.4v5.052H117.993v9.953H132.8ZM159.292,154a4.359,4.359,0,0,0-1.67-3.666,20.138,20.138,0,0,0-6.028-2.6,29.1,29.1,0,0,1-6.934-2.921q-4.926-3.1-4.927-8.073a8.784,8.784,0,0,1,3.554-7.18,14.374,14.374,0,0,1,9.222-2.821,15.569,15.569,0,0,1,6.709,1.385,11,11,0,0,1,4.631,3.951,10.122,10.122,0,0,1,1.684,5.68h-6.241a5.652,5.652,0,0,0-1.77-4.419,7.3,7.3,0,0,0-5.064-1.6,7.63,7.63,0,0,0-4.765,1.314,4.365,4.365,0,0,0-1.7,3.664,3.95,3.95,0,0,0,1.832,3.306,21.066,21.066,0,0,0,6.04,2.575,27.768,27.768,0,0,1,6.759,2.847,10.735,10.735,0,0,1,3.738,3.664,9.54,9.54,0,0,1,1.189,4.841,8.579,8.579,0,0,1-3.454,7.168q-3.454,2.662-9.372,2.661a17.618,17.618,0,0,1-7.192-1.447,12.066,12.066,0,0,1-5.1-4,9.965,9.965,0,0,1-1.82-5.942h6.263a5.834,5.834,0,0,0,2.03,4.753,8.893,8.893,0,0,0,5.818,1.684,7.722,7.722,0,0,0,4.915-1.326,4.265,4.265,0,0,0,1.646-3.5M27.654,33.419a3.928,3.928,0,0,0-1.533-3.332,20.009,20.009,0,0,0-5.515-2.453A39,39,0,0,1,14.3,25.1q-6.331-3.421-6.332-9.219a8.973,8.973,0,0,1,1.7-5.374,11.08,11.08,0,0,1,4.877-3.69,18.377,18.377,0,0,1,7.137-1.328,16.735,16.735,0,0,1,7.1,1.443A11.316,11.316,0,0,1,33.615,11a10.665,10.665,0,0,1,1.724,5.976H27.678a5.008,5.008,0,0,0-1.607-3.97,6.608,6.608,0,0,0-4.519-1.419,7.079,7.079,0,0,0-4.369,1.187A3.752,3.752,0,0,0,15.626,15.9a3.586,3.586,0,0,0,1.827,3.038,20.566,20.566,0,0,0,5.374,2.3q6.538,1.967,9.525,4.877a9.717,9.717,0,0,1,2.988,7.254,8.945,8.945,0,0,1-3.652,7.569q-3.651,2.748-9.831,2.747a18.991,18.991,0,0,1-7.813-1.572,12.369,12.369,0,0,1-5.376-4.3,11.02,11.02,0,0,1-1.851-6.334H14.5q0,6.155,7.354,6.155a7.151,7.151,0,0,0,4.263-1.111,3.613,3.613,0,0,0,1.533-3.1m20.529-3.346v13.1h-7.66V6h14.5a16.813,16.813,0,0,1,7.368,1.531,11.314,11.314,0,0,1,4.889,4.354,12.155,12.155,0,0,1,1.71,6.423,10.675,10.675,0,0,1-3.74,8.618q-3.74,3.153-10.354,3.153Zm0-6.2h6.843a6.733,6.733,0,0,0,4.636-1.431,5.2,5.2,0,0,0,1.6-4.087,6.131,6.131,0,0,0-1.61-4.416A6,6,0,0,0,55.2,12.2H48.183ZM90.7,35.514H77.267l-2.553,7.66H66.569L80.408,6h7.1l13.918,37.179H93.277ZM79.335,29.309h9.294L83.957,15.391Zm54.211,1.481a13.163,13.163,0,0,1-4.431,9.446q-4,3.45-10.533,3.449-7.151,0-11.247-4.815t-4.1-13.213V23.383a22.261,22.261,0,0,1,1.889-9.446,14.169,14.169,0,0,1,5.4-6.27,15.134,15.134,0,0,1,8.159-2.183q6.435,0,10.366,3.447a14.139,14.139,0,0,1,4.545,9.678h-7.66q-.283-3.6-2-5.221a7.424,7.424,0,0,0-5.247-1.622,6.506,6.506,0,0,0-5.732,2.744q-1.9,2.748-1.954,8.517v2.809q0,6.026,1.825,8.809a6.388,6.388,0,0,0,5.759,2.783,7.569,7.569,0,0,0,5.3-1.619,7.338,7.338,0,0,0,2.006-5.018Zm27.4-3.728H146.236v9.958H163.5v6.155H138.576V6h24.871V12.2H146.236v8.861h14.708Z" transform="translate(6.205 7.615)" fill="#072434"/>
      <path id="Path_1878" data-name="Path 1878" d="M0,0H179.553V179.553H0Z" transform="translate(2.388 2.388)" fill="none" stroke="#072434" stroke-width="4"/>
    </g>
  </g>
</svg>
