<svg id="Group_16" data-name="Group 16" xmlns="http://www.w3.org/2000/svg" xmlns:xlink="http://www.w3.org/1999/xlink" width="122.773" height="122.283" viewBox="0 0 122.773 122.283">
  <defs>
    <clipPath id="clip-path">
      <rect id="Rectangle_630" data-name="Rectangle 630" width="122.773" height="122.283" transform="translate(0 0)" fill="none" stroke="#072434" stroke-width="1"/>
    </clipPath>
  </defs>
  <g id="Group_15" data-name="Group 15" clip-path="url(#clip-path)">
    <path id="Path_706" data-name="Path 706" d="M122.487,86.876l.286-.119-.346-.833.129-.054-.347-.832-.129.054-.346-.833-.305.127-.346-.832.305-.127-.347-.832-.155.064-.347-.832.156-.064c-.173-.415-.52-1.251-.693-1.665l.279-.116-.347-.833-.434.181-.346-.832.155-.065-.692-1.664.129-.054-.346-.833-.13.054-.346-.832-.155.065-.346-.833.155-.064c-.309-.741-.731-1.756-1.039-2.5l.129-.053-.346-.832-.129.053-.347-.832-.305.127-.346-.833.305-.127-.346-.832L115,68.51l-.346-.832.155-.065c-.172-.414-.52-1.25-.692-1.665l.278-.116L114.047,65l-.434.181-.347-.833.156-.064c-.173-.415-.52-1.251-.693-1.665l.129-.054-.346-.832-.129.054-.346-.833-.156.065-.346-.832.155-.065c-.308-.741-.73-1.756-1.039-2.5l.129-.054-.346-.832-.129.054-.347-.832-.3.126-.347-.832.305-.127-.346-.833-.155.065-.347-.832.155-.065-.692-1.664.279-.116-.347-.833-.434.181-.346-.832.155-.065c-.172-.414-.52-1.25-.692-1.665l.129-.053-.347-.833-.129.054-.346-.832-.155.064-.347-.832.156-.065c-.309-.74-.731-1.756-1.039-2.5l.129-.055-.347-.832-.129.054-.346-.832-.305.127-.346-.833.305-.126-.347-.833-.155.065-.347-.833.156-.064-.693-1.665.279-.116-.347-.832-.434.18-.346-.832.155-.065-.692-1.664.129-.054-.346-.832-.13.053-.346-.832-.155.065-.346-.833.155-.064c-.313-.751-.741-1.781-1.054-2.533l.129-.054-.361-.868-.129.054-.361-.868-.306.127-.36-.868.3-.127-.361-.869-.155.065-.362-.868.156-.065c-.185-.445-.561-1.349-.748-1.8L96.571,23l-.361-.868-.937.08-.022.474-.979.083-.014-.167-1.874.16-.012-.14-.936.08.012.14-.937.08.014.167-.937.08L89.574,23l-2.888.247-.012-.14L85.66,23.2l.013.14-1.014.086.028.33-1.014.086-.028-.329-1.014.087.015.167-1.014.087-.014-.168-2.028.174-.026-.3-1.013.086.04.469-1.014.086-.014-.167-2.028.173-.012-.139-1.013.086.011.14-1.013.086.014.168-1.014.086-.014-.168-3.041.26-.012-.139-1.014.087.012.139-1.014.087.028.329-1.013.086-.028-.329-1.014.087.014.167-1.014.087-.014-.168-2.027.174-.026-.3-1.014.087.04.469-1.013.087-.015-.168-2.027.173-.012-.14-1.014.087.012.139-1.014.087.014.168-1.013.086-.014-.167-2.028.173.027.312-.4.233-.01-.344-1.837,1.08-.086-.145-.81.477.085.145-.81.477-.167-.285-.811.477.168.285-.811.476.071.121-.81.477-.071-.12-2.348,1.381-.085-.145-.769.452.085.145-.768.453.07.12-.769.452-.07-.12-1.538.9-.086-.145-.768.452.238.4-.768.453-.154-.261-1.537.9-.086-.145-.768.452.085.145-.769.452-.167-.284-.77.452.168.285-.769.452.071.121-.768.453-.072-.121-2.306,1.357-.085-.145-.769.452.085.145-.768.452.07.121-.768.452-.071-.12-1.538.9-.085-.145-.769.452.238.405-.768.452-.154-.26-1.537.905-.086-.145-.768.452.085.145-.769.452-.167-.284-.769.452.168.285-.769.452.07.121-.768.452-.071-.121-2.307,1.357-.085-.145-.769.453.085.145-.768.452.071.121-.769.452-.071-.121-1.538.9-.085-.145-.769.453.238.4-.768.453L13.1,49.7l-1.538.9-.085-.145-.769.452.085.145-.769.452-.167-.285-.769.453.168.284-.769.453.071.12-.769.453-.071-.121c-.709.417-1.681.988-2.389,1.406l-.086-.145-.81.477.085.145-.811.477.072.12-.811.477-.071-.12-1.621.953-.085-.145-.957.563.349.341c-.068.044-.225.14-.311.122l0,.057L.094,57.7l.216.519L0,58.258c.191.461.579,1.394.77,1.852l-.155.064.361.869.155-.065.362.868-.306.127.362.868.3-.127.361.868.129-.054L2.7,64.4l-.129.053c.345.829.819,1.969,1.165,2.8l-.156.064.4.965.155-.064.4.965.129-.054.4.965-.13.054c.2.48.6,1.45.8,1.93l-.155.065.4.965.435-.181.4.965L6.552,74c.2.481.6,1.45.8,1.931L7.2,76l.4.965.155-.065.4.966-.3.126.4.966.305-.127.4.965.129-.054.4.965-.129.054,1.2,2.895-.155.065.4.965.156-.065.4.965.129-.054.4.966-.129.053.8,1.931-.155.064.4.965.434-.18.4.964-.279.117c.2.48.6,1.449.8,1.93l-.155.064.4.966.155-.065.4.965-.3.127.4.965.3-.127.4.965.129-.053.4.964-.13.054c.357.86.848,2.036,1.2,2.9l-.155.064.4.965.156-.065.4.966.13-.054.4.965-.129.054.8,1.93-.156.065.4.965.434-.181.4.965-.279.116.8,1.93-.155.065.4.965.155-.065.4.965-.305.127.4.966.3-.127.4.965.129-.054.4.965-.129.054c.334.8.791,1.9,1.124,2.7l-.155.065.361.868.155-.065.362.868.129-.053.361.868-.129.053c.18.433.542,1.305.722,1.737l-.155.064.493,1.185.335-.419.216.519.089-.052.026.312.939-.08.012.139.938-.08-.012-.139.938-.08-.027-.329.938-.08.028.328.938-.08-.014-.167.939-.08.014.167,1.877-.16.025.3.939-.08-.04-.469.938-.08.015.168,1.877-.161.011.14.939-.08-.012-.14.939-.08-.015-.167.939-.081.014.168,2.815-.241.012.14.938-.08-.011-.14.938-.08-.028-.329.938-.08.029.329.938-.08-.014-.168.938-.08.015.167,1.877-.16.025.3.938-.08-.04-.468.939-.08.014.167,1.877-.161.012.14.939-.08-.013-.14.939-.08-.014-.167.938-.08.014.167,2.816-.24.011.139.939-.08-.012-.139.939-.081-.029-.329.939-.08.028.329.939-.08-.015-.167.938-.081.015.168,1.877-.16.026.3.938-.08-.04-.468.938-.08.015.167a3.28,3.28,0,0,0,1.981-.538l.071.121.812-.478-.071-.12.812-.478-.085-.145.812-.477.085.145c.723-.425,1.712-1.009,2.435-1.433l.071.12.812-.477-.071-.121.812-.477-.168-.285.812-.478.167.285.812-.478-.085-.145.812-.477.085.144,1.623-.955.154.261.812-.478-.239-.4.812-.478L82.4,111l1.623-.955.072.121.811-.478-.071-.121.812-.477-.085-.145.811-.478.086.145,2.435-1.433.071.121.812-.478-.071-.121.812-.477-.168-.285.812-.477.168.284.811-.477-.085-.145.812-.478.085.145,1.624-.955.153.26.811-.478-.238-.4.812-.477.085.145,1.624-.956.071.121.811-.477-.07-.121.811-.478-.085-.145.812-.478.085.145,2.435-1.432.072.12.811-.477-.071-.121.812-.477-.167-.285.811-.478.168.285.811-.478L105.856,97l.812-.477.085.145,1.624-.956.153.261.812-.478-.239-.405.812-.478.085.146c.4-.239,1.22-.718,1.624-.956l.071.12.812-.477-.071-.121.811-.477-.085-.145.812-.478.085.145,2.434-1.432.071.121.81-.477-.07-.121.81-.476-.167-.285.81-.477.168.284.9-.53-.117-.126,1.136-.669.29.025L122,87.7c.053-.1.257-.47.313-.573l.244-.036-.068-.212M94.659,23.861l-.043-.072a1.026,1.026,0,0,1,.591-.155l0-.1.453-.266.087.207-.264.153.7,1.681-.156.064.362.868.155-.064.361.868-.305.127.361.868.305-.127.362.868.129-.053.361.868-.129.053c.312.752.741,1.781,1.054,2.533l-.156.065.347.832.155-.065.346.833.13-.054.346.832-.129.054.692,1.665-.155.064.347.833.434-.181.346.832-.279.116c.172.415.52,1.251.693,1.665l-.156.065.347.832.155-.065.346.832-.3.127.346.833.305-.127.346.832.129-.053.347.832-.13.053c.308.742.732,1.756,1.039,2.5l-.155.064.346.833.156-.065.346.832.129-.054.346.833-.129.054c.173.414.521,1.25.693,1.664l-.155.065.346.832.434-.181.347.833-.279.116c.172.414.52,1.25.692,1.665l-.155.064.347.833.155-.065.346.832-.305.127.346.832.3-.127.347.833.129-.054.346.833-.129.053,1.039,2.5-.155.065.346.832.155-.065.347.833.129-.054.346.832-.129.054c.172.414.52,1.251.693,1.665l-.156.065.347.832.434-.181.346.832-.279.117c.173.414.521,1.25.693,1.664l-.155.065.346.832.155-.064.347.832-.305.127.346.832.305-.127.347.832.128-.053.347.832-.129.054c.308.741.73,1.756,1.039,2.5l-.155.064.346.833.155-.065.346.832.13-.053.346.832-.129.054.692,1.664-.155.065.346.833.434-.181.347.832-.279.116.693,1.665-.156.065.347.832.155-.065.346.832-.3.127.346.833.305-.127.346.832.129-.054.347.833-.129.053.1.252-.041-.02-2.511.214.018-.142-1.072.092.012.139-.937.08.014.168-.937.08-.014-.168-2.888.247-.011-.14-1.014.087.012.14-1.014.086.028.329-1.014.086-.028-.329-1.014.087.015.168-1.014.086-.014-.167-2.028.173-.025-.3-1.014.087.04.468-1.014.087-.014-.168-2.028.173-.012-.139-1.013.087.012.139-1.014.087.014.167-1.014.087-.014-.168-3.041.26-.012-.14-1.014.087.013.139-1.015.087.029.329-1.014.087-.028-.329-1.014.086.014.168-1.014.086L91,89.132l-2.027.173-.026-.3-1.014.087.04.468-1.013.087-.015-.168-2.027.173-.012-.139L83.9,89.6l.012.14-1.014.086.015.168-1.014.087-.014-.168-1.705.146c-.19-.457-.574-1.381-.764-1.836l.156-.064-.362-.868-.155.064-.361-.868L79,86.358l-.361-.868-.305.127-.361-.868-.13.053-.361-.867.129-.055c-.345-.828-.819-1.968-1.164-2.8l.155-.065-.4-.965-.156.064-.4-.965-.129.054-.4-.965.129-.054-.8-1.93.155-.065-.4-.965-.434.181-.4-.965.279-.116c-.2-.481-.6-1.45-.8-1.93l.156-.065-.4-.965-.155.065-.4-.966.305-.127-.4-.964-.305.127-.4-.966-.13.054-.4-.965.129-.054c-.357-.859-.848-2.036-1.205-2.895l.155-.065-.4-.965-.155.065-.4-.965-.129.053-.4-.964.13-.054c-.2-.481-.6-1.45-.8-1.93l.156-.065-.4-.965L66.928,59l-.4-.966.279-.116L66,55.99l.155-.065-.4-.964-.156.064-.4-.965.305-.127-.4-.965L64.8,53.1l-.4-.965-.129.054-.4-.966.129-.053c-.357-.86-.847-2.036-1.2-2.9l.156-.065-.4-.965-.155.064-.4-.965-.129.054-.4-.965.129-.054-.658-1.584.262-.155-.035-.06.389-.229-.043-.073.39-.229.042.073,1.169-.688.036.06.39-.229-.036-.06.39-.229-.084-.143.39-.229.083.142.39-.229-.043-.072.39-.229.043.072.779-.459.076.131.39-.23-.119-.2.389-.229.043.072.779-.459.036.061.389-.23-.035-.06.389-.229-.042-.072.39-.229.042.072,1.169-.688.035.06.39-.229-.036-.06.39-.229-.084-.143.39-.229.084.142.389-.229-.042-.072.389-.229.043.072.779-.459.077.131.389-.23-.119-.2.389-.229.043.072.78-.458.035.06.389-.229-.035-.061.389-.229-.042-.072.39-.229.042.072,1.169-.688.036.06.389-.229-.035-.06.389-.229-.084-.142.39-.23.084.142.39-.229-.043-.072.389-.229.043.072.779-.458.077.13.389-.229-.119-.2.39-.229.042.072.78-.458.035.06.39-.229-.036-.061.39-.229-.043-.072.39-.229.043.072,1.169-.688.035.061.389-.23-.035-.06.389-.229-.083-.142.39-.23.083.143.39-.23-.043-.072.39-.229.042.072.78-.458.076.13.39-.229-.119-.2.389-.229.043.072.779-.458.035.06.39-.229-.035-.06.389-.23-.042-.072.389-.229.043.072,1.169-.688.035.061.39-.23-.036-.06.39-.229-.084-.142.39-.23.084.143.389-.23-.043-.072.39-.229.043.072c.194-.113.585-.344.779-.458l.076.13.39-.229-.119-.2.389-.229.043.072c.194-.113.586-.344.779-.458l.036.06.39-.229-.036-.06ZM76,92.295l-.81.477.085.145-.81.477-.086-.145-2.389,1.4-.071-.12-.769.452.07.121-.768.452.167.285-.769.452-.167-.284-.769.452.085.145-.768.452-.086-.145c-.382.226-1.154.68-1.537.9l-.153-.26-.769.452.238.4-.768.453-.086-.145-1.538.9-.07-.12-.769.452.071.121-.55.323c-.029-.068-.2-.473-.23-.551l.078-.032-.185-.443-.217.09-.184-.444.14-.058-.37-.886.078-.033-.184-.443-.078.032-.184-.443.152-.063-.185-.443-.152.063-.184-.443-.065.027-.184-.444.064-.027-.553-1.33.078-.032-.185-.443-.078.032-.184-.443-.065.027-.184-.443.065-.027c-.092-.221-.278-.667-.369-.887l.077-.032-.185-.444-.216.091-.185-.444.14-.058c-.092-.22-.278-.666-.369-.886l.077-.033-.184-.443-.078.033-.184-.444L57.9,89.6l-.184-.444-.152.064-.185-.443-.065.026-.184-.443.064-.027L56.638,87l.078-.033-.185-.443-.078.032-.184-.443-.064.027L56.02,85.7l.065-.027c-.092-.22-.278-.666-.369-.886l.077-.032-.184-.444-.217.091-.185-.444.14-.057c-.092-.221-.277-.667-.369-.887l.078-.032-.185-.444-.078.033-.184-.444.153-.063-.185-.444-.152.064-.185-.444-.064.027-.185-.443.065-.026c-.165-.395-.389-.936-.554-1.331l.078-.032-.185-.443-.077.032-.185-.443-.064.027-.185-.444.065-.027-.369-.886.078-.033-.185-.442-.217.09-.184-.443.139-.059c-.091-.22-.277-.666-.369-.886l.078-.033L51.735,75l-.077.032-.185-.443.153-.063-.185-.443-.152.063L51.1,73.7l-.064.027-.185-.444.065-.027c-.165-.394-.389-.935-.553-1.33l.077-.032-.184-.443-.078.032L50,71.041l-.064.027-.185-.443.065-.027c-.091-.221-.277-.667-.369-.887l.078-.032-.185-.444-.216.091-.185-.444.14-.058-.37-.886.078-.033-.184-.443-.078.033-.184-.444.152-.063-.184-.444-.153.064-.184-.443-.065.027-.184-.444.064-.027-.553-1.329.078-.033-.185-.443-.078.032-.184-.443-.065.027-.184-.444.065-.026c-.092-.221-.278-.667-.369-.887l.077-.032L46.2,61.7l-.217.091-.185-.444.14-.058c-.092-.22-.278-.666-.369-.886l.077-.032-.184-.444-.078.033-.184-.444.152-.063-.184-.444-.152.064-.185-.444-.065.027-.184-.443.064-.027L44.1,56.874l.078-.032L44,56.408l-.078.032-.18-.434-.065.027L43.5,55.6l.065-.027c-.09-.216-.272-.653-.361-.868l.077-.033-.193-.465.147-.086.035.06.39-.229-.035-.061.389-.229-.084-.142.39-.229.083.142.39-.229-.043-.073.39-.229.043.073.779-.459.077.13.389-.229-.119-.2.39-.229.042.073.779-.459.036.06.389-.229-.035-.06.39-.229-.043-.073.39-.229.042.072,1.169-.687.036.06.389-.229-.035-.06.389-.23-.083-.142.389-.229.084.142.389-.229-.043-.073.39-.229.043.073.779-.459.077.13.389-.229-.119-.2.39-.229.042.073.78-.459.035.06.39-.229-.036-.06.39-.229-.043-.073.39-.229.043.073c.346-.205.822-.484,1.168-.688l.036.06.389-.229-.035-.06.389-.23-.083-.142.389-.229.084.142.389-.229-.042-.073.39-.229.042.073.78-.459.076.131.39-.23-.119-.2.389-.229.043.073.1-.057.637,1.529-.13.054.4.965.129-.053.4.965.156-.065.4.965-.156.065c.358.859.848,2.036,1.2,2.9L63,51.58l.4.965.129-.054.4.965.305-.127.4.965-.306.127.4.965.156-.064.4.965-.155.064.8,1.93-.279.117.4.965.434-.181.4.965-.155.065.8,1.93-.129.054.4.965.129-.054.4.965.155-.065.4.966-.155.064c.357.86.847,2.036,1.205,2.895l-.129.054.4.965.129-.053.4.964.305-.126.4.965-.3.127.4.965.155-.065.4.965-.156.065c.2.48.6,1.45.8,1.93l-.279.116.4.965.434-.181.4.966-.155.064.8,1.93-.129.054.4.965.128-.054.4.966.155-.065.4.965-.155.064c.345.831.819,1.97,1.164,2.8l-.129.053.361.869.129-.054.361.868.305-.127.362.868-.305.127.361.868.155-.064.362.868-.156.065.672,1.613-.31.04.348.341-.736.432-.085-.145-1.621.954-.07-.121-.811.477ZM54.327,26.957l1.014-.086.014.167,1.014-.086-.015-.168,1.014-.087-.012-.139,1.014-.087.012.14c.5-.043,1.522-.131,2.027-.173l.015.167,1.013-.086-.04-.469,1.014-.087.026.3,2.027-.173.014.168,1.014-.087L65.478,26l1.014-.086.028.329,1.014-.086-.029-.329,1.014-.087-.012-.139,1.014-.087.012.139c.9-.076,2.138-.183,3.041-.26l.014.168L73.6,25.48l-.014-.168,1.014-.087-.012-.139L75.6,25l.012.14,2.028-.174.014.168,1.014-.087-.04-.468,1.013-.086.026.3,2.028-.174.014.168,1.013-.087-.014-.167,1.014-.087.028.329,1.014-.086-.028-.33,1.014-.086-.012-.14,1.013-.086.012.139,2.888-.246.014.167.937-.08-.014-.168.936-.08-.011-.139.937-.08.011.14,1.8-.155-.237.141.035.06-.389.229-.036-.06-.779.458-.043-.072-.389.229.119.2-.39.229-.077-.13-.779.458-.042-.072-.39.229.043.073-.39.229-.084-.142-.389.229.084.142-.39.229.035.06-.389.23-.036-.061-1.169.688-.042-.073-.39.23.043.072-.39.23.036.06-.39.229-.035-.06-.779.458L86.2,28.2l-.39.229.119.2-.39.23-.076-.13-.779.458-.042-.073-.39.23.042.072-.389.23-.084-.143-.389.23.083.142-.39.229.036.06-.389.23-.036-.061-1.169.688-.043-.073-.389.23.043.072-.39.229.036.061-.39.229-.036-.06-.779.458-.042-.073-.39.23.119.2-.39.229-.076-.129c-.194.113-.586.344-.779.458l-.043-.073-.39.23.043.072-.389.23-.084-.143-.39.229.084.143L76.5,34l.036.06-.39.23-.035-.061-1.169.688-.043-.073-.389.229.042.073-.39.229.036.061-.389.229-.036-.06c-.194.113-.586.344-.779.458l-.043-.073-.39.23.12.2-.39.229-.076-.129c-.194.113-.586.344-.779.458l-.043-.073-.39.23.043.072-.39.229-.083-.142-.39.229.084.143-.39.229.035.06-.389.229-.036-.06-1.168.688-.043-.073-.39.229.043.073-.39.229.036.061-.389.229-.036-.06c-.194.113-.586.344-.779.458l-.043-.073-.39.229.12.2-.39.229-.077-.13-.779.459-.042-.073-.39.229.043.073-.39.229-.084-.142-.39.229.084.142-.389.229.035.061-.389.229-.036-.06-1.169.687-.042-.072-.39.229.043.072-.39.23.036.06-.06.036-.355-.851-.434.18-.4-.965.278-.116-.8-1.93.155-.065-.4-.965-.156.065-.4-.966.3-.126-.4-.965-.3.127-.4-.966-.129.054-.4-.965.129-.054c-.334-.8-.79-1.9-1.124-2.7l.156-.065-.362-.868-.155.065-.361-.868-.129.054-.362-.869.129-.053c-.179-.433-.542-1.3-.722-1.737l.156-.064-.282-.676ZM2.559,56.99l.811-.477.071.12.81-.476-.07-.121.81-.477-.085-.145.81-.476.085.145,2.39-1.407.071.121.769-.452-.071-.121.768-.452-.167-.285.769-.452.167.284.769-.452-.085-.145.769-.452.085.145,1.538-.905.152.261.769-.453-.238-.405.769-.452.085.145,1.538-.9.071.12.769-.452-.072-.12.77-.453-.086-.145.769-.452.085.145,2.307-1.357.07.121.769-.453-.071-.121.769-.452-.167-.285.769-.452.167.285.769-.453-.086-.145.769-.452.086.145,1.537-.9.153.261.769-.453-.238-.4.769-.452.085.145,1.538-.9.07.121.769-.453-.071-.12.769-.452-.085-.146.769-.452.085.145L34.33,38.3l.071.121.769-.453-.071-.12.769-.453-.167-.284.769-.453.167.285.769-.452-.086-.145.769-.453.085.145,1.538-.9.153.26.769-.452-.239-.406.769-.452.086.145,1.537-.905.071.121.769-.452-.071-.121.769-.452-.085-.145.769-.453.085.145,2.348-1.381.071.121.81-.477-.071-.121.81-.477-.167-.284.81-.477.168.284.811-.477-.086-.144.811-.477.085.145,1.391-.819.01.345.335-.42.294.708-.155.065c.18.432.543,1.3.722,1.736l-.129.054.362.868.129-.054.361.868.155-.065.361.869-.155.064c.334.8.79,1.9,1.124,2.7l-.129.053.4.965.129-.053.4.965.305-.127.4.965-.3.127.4.965.155-.065.4.965-.155.065.8,1.93-.279.116.4.965.434-.181.377.907-.3.176-.043-.073-.39.229.119.2-.389.229-.077-.13c-.193.114-.585.345-.779.458l-.043-.072-.389.229L57.8,45l-.389.229-.084-.142-.39.229.084.142-.39.229.036.061-.39.229-.035-.061-1.169.688-.043-.072-.389.229.043.072-.39.23.036.06-.39.23L53.9,47.3c-.193.114-.585.345-.779.458l-.042-.072-.39.229.119.2-.39.229-.076-.13-.78.458-.042-.072-.39.229.043.072-.389.23-.084-.143-.39.23.084.142-.39.229.035.06-.389.23-.035-.061-1.169.688-.043-.072-.389.229.042.072-.39.229.036.061-.39.229-.035-.06-.779.458-.043-.072-.39.229.12.2-.39.229-.076-.13-.78.458L44.9,52.5l-.39.229.043.072-.39.23-.083-.143-.39.23.083.142-.389.229.035.06-.389.229-.036-.06-.39.229.073.123-.187.017.006-.153-.966.083-.008-.084-.468.04.007.084-.468.04-.014-.165-.469.04.014.165-.468.04.006.07-.468.04-.006-.07-1.374.117-.006-.083-.453.038.007.084-.452.039.006.069-.453.039-.006-.07-.9.077-.007-.083-.453.039.02.233-.452.039-.013-.15-.9.077-.008-.084-.452.039.007.084-.452.038-.014-.164-.452.038.014.165-.453.039.006.069-.452.039-.006-.07-1.357.116-.007-.084-.453.039.007.084-.452.039.006.069-.452.039-.006-.07-.905.077-.007-.083-.452.038.02.234-.453.039-.013-.151-.9.078-.007-.084-.453.039.007.084-.452.038-.014-.164-.452.038.014.165-.452.038,0,.07L23.8,55.6l-.006-.07-1.357.116-.007-.084-.453.039.008.084-.453.038.007.07-.453.039-.006-.07-.905.077-.007-.084-.452.039.02.234-.452.039-.014-.15-.9.077-.007-.084-.452.038.007.084-.453.039-.014-.165-.452.039.014.165-.452.038.005.07-.452.038-.006-.069-1.356.116-.008-.084-.452.038.007.084-.452.039.006.07-.453.038-.006-.069-.9.077-.008-.084-.452.039.02.234-.452.039-.013-.151-.9.077-.007-.083-.452.039.007.083-.453.039-.013-.165L9.3,56.6l.014.164-.452.039.006.07-.453.038-.006-.069-1.356.116-.008-.084-.452.039L6.6,57l-.452.039.006.07-.452.038-.006-.07-.905.078-.007-.084-.453.039.02.234-.452.038-.013-.15-.9.077-.008-.083-.452.038.007.084-.452.038-.009-.1Zm-.94.358.006.073-.153.014Zm26.972,63.933.161-.1.007.081Zm.28-.165.3-.174.084.142Zm.388-.032.409-.242.018.2Zm.241-1.429.085.145-.81.477-.086-.145-1.391.819-.01-.344-.335.418-.294-.707.155-.065-.722-1.736.129-.053-.361-.869-.129.054-.362-.868-.155.065-.361-.868.155-.065-1.124-2.7.13-.053-.4-.965-.129.054-.4-.966-.305.127-.4-.965.305-.127-.4-.965-.156.065-.4-.965.155-.065c-.2-.48-.6-1.45-.8-1.93l.279-.116-.4-.965-.435.18-.4-.965.155-.064-.8-1.93.129-.054-.4-.965-.13.053-.4-.964-.155.064-.4-.965.155-.065c-.357-.859-.847-2.036-1.2-2.895l.13-.053-.4-.966-.129.054-.4-.965-.3.127-.4-.965.3-.127-.4-.965-.155.064-.4-.965.156-.064c-.2-.481-.6-1.45-.8-1.931l.279-.115-.4-.966-.434.181-.4-.965.155-.065-.8-1.93.129-.054-.4-.965-.129.054-.4-.965-.156.064-.4-.965.156-.064c-.358-.86-.848-2.036-1.2-2.895l.129-.054-.4-.965-.129.054-.4-.966-.306.127-.4-.965.305-.127-.4-.965-.155.065-.4-.965.155-.065-.8-1.93.279-.116-.4-.965-.434.181-.4-.966.156-.064c-.2-.48-.6-1.45-.8-1.93l.13-.054-.4-.965-.129.053-.4-.964-.155.064-.4-.965.156-.065-1.165-2.8.13-.054-.362-.868-.129.054-.361-.868-.3.127-.361-.869.305-.126L2,60.617l-.155.064-.361-.868.155-.064c-.167-.4-.506-1.216-.671-1.615l.31-.039L1.181,58l.038,0-.006-.07.452-.038-.013-.165.452-.038.014.164.452-.038-.007-.084.452-.039.007.084.9-.078.013.151.452-.039-.02-.234.453-.039.007.084.905-.077.006.07.452-.039-.006-.07.452-.039-.007-.083.452-.039.008.084,1.357-.116.005.07.453-.039L8.9,57.272l.452-.039-.014-.165.453-.038.013.164.453-.039-.007-.083.452-.039.007.084.9-.077.013.15.452-.039-.02-.234.453-.039.007.084.9-.077.006.07.453-.039-.006-.07.452-.038-.007-.084.452-.038.008.083,1.356-.116.006.07.452-.039,0-.069.452-.039-.014-.164.452-.039.014.164.453-.038-.007-.084.452-.038.007.083.9-.077.014.15.452-.038-.02-.235.453-.038.006.084.9-.078.006.07.453-.039-.007-.069.453-.039-.007-.084.452-.039.007.084L23.83,56l.006.069.452-.039,0-.069.452-.039-.014-.164.452-.039.014.164.453-.038-.008-.084.453-.039.007.084.9-.077.013.151.453-.039-.02-.234.452-.039.007.084.905-.078.006.07.452-.038-.006-.07a3.145,3.145,0,0,0,.452-.039c.111-.031-.007-.084-.007-.084l.453-.038s-.334.092.007.084.955-.082,1.357-.117l.006.07.452-.038-.006-.07.453-.039L32.41,55.1l.453-.039.014.165.452-.039-.007-.084.452-.038.008.084.9-.078.013.151.452-.039-.02-.234.453-.039.007.084.9-.077.005.069.453-.038-.006-.07.452-.039-.007-.084.453-.038.006.084,1.373-.117.007.069.468-.04-.006-.069.468-.04-.014-.165.469-.04.014.165.469-.04-.008-.084.469-.04.007.084.9-.078-.007.152.205-.119.172.415-.078.032.362.869-.065.026.181.434.064-.026.181.434.078-.033.18.434-.077.033c.162.389.384.922.545,1.311l-.064.027.184.443.065-.027.184.444.153-.064.184.443-.152.064.184.443.078-.032.184.443-.077.033.369.886-.14.058.185.443.217-.09.184.443-.078.033.37.886-.065.027.184.443.065-.026.184.443.078-.033.184.444-.077.032.553,1.33-.065.027.185.443.065-.027.184.444.152-.064.185.444-.152.063.184.443.077-.032.185.443-.078.032c.092.221.278.667.369.887l-.139.058.184.444.217-.091.185.443-.078.033c.092.22.278.666.369.886l-.065.027.185.444.064-.028.185.444.078-.033.184.444-.078.032c.165.394.39.935.554,1.33l-.065.027.185.443.064-.026.185.442.152-.063.185.443-.153.064.184.443.078-.032.185.443-.078.032c.092.221.278.667.369.887l-.139.058.184.443.217-.09.184.443-.077.033.369.886-.065.027.185.443.064-.027.185.444.077-.032.185.443-.078.032c.164.4.39.935.553,1.33L53.557,81l.185.443.064-.027.185.443.152-.063.185.443-.153.064.184.443.078-.032.184.443-.077.032c.092.221.277.667.369.887l-.14.058.185.443.217-.09.184.443-.077.032c.091.221.277.667.369.887l-.065.027.184.443.065-.026.184.443.078-.032.185.443-.078.032c.164.394.39.935.553,1.33l-.064.027.184.443.065-.027.184.444.153-.064.184.443-.152.064.184.443.078-.032.184.443-.077.032c.091.221.277.666.369.887l-.14.058.185.443.217-.09.184.443-.078.033.37.886-.065.027.184.444.065-.027.184.443.078-.033.184.444-.077.032.553,1.33-.065.027.185.443.065-.027.184.444.152-.064.185.444-.152.063.184.443.077-.032.185.443-.078.032c.092.221.278.667.369.887l-.139.058.184.443.217-.09.185.443-.078.033.32.768-.559.328-.085-.145c-.684.4-1.621.955-2.306,1.357l-.071-.12-.769.452.071.12-.769.453.168.285-.769.452-.168-.285-.768.453.085.144-.769.453-.086-.145-1.537.9-.153-.26-.769.452.238.4-.768.452L52,106.415c-.382.226-1.155.68-1.537.9L50.4,107.2l-.769.453.071.121-.769.452.086.145-.77.452-.084-.145-2.307,1.357-.071-.121-.769.453.071.12-.769.453.168.284-.769.452-.167-.284-.769.452.085.145-.769.452-.085-.144-1.537.9-.154-.26-.769.453.239.4-.769.452-.085-.145-1.538.9-.071-.121-.769.452.071.121-.769.453.086.144-.769.453-.085-.145-2.348,1.381-.071-.12-.811.477.071.12-.81.477.167.284-.81.478-.167-.285Zm38.662-1.895-.015-.167-.938.08.04.469-.938.08-.026-.3-1.877.16-.015-.167-.938.08.015.167-.939.08-.028-.329-.939.081.029.328-.939.081.012.139-.939.08-.011-.139-2.816.24-.014-.167-.938.08.014.167-.938.081.011.139-.938.08-.012-.139-1.877.16-.014-.167-.939.08.04.468-.938.081-.026-.3-1.876.161-.015-.168-.938.081.014.167-.938.08-.028-.329-.939.08.028.329-.938.08.012.14-.939.08-.012-.139-2.815.24-.015-.167-.938.08.015.167-.939.08.012.14-.939.08-.011-.14-1.877.161-.014-.168-.939.081.04.468-.938.08-.026-.3-1.877.16-.014-.167-.939.08.014.168-.938.08-.028-.329-.678.058.144-.085-.085-.145.81-.477.168.285.81-.477-.167-.285.81-.477-.071-.12.81-.477.072.121c.7-.411,1.651-.972,2.347-1.382l.086.145.768-.452-.085-.145.769-.452-.071-.121.769-.453.071.121,1.537-.9.086.145.769-.453-.239-.4.769-.452.153.26,1.538-.9.085.145.769-.452-.085-.145.768-.453.168.285.769-.452-.168-.285.769-.452-.071-.121.769-.452.071.12,2.306-1.357.086.145.768-.452-.085-.145.769-.452-.071-.121.768-.452.072.12,1.537-.9.085.145.769-.452-.238-.406.769-.452.153.26c.383-.225,1.155-.68,1.538-.9l.085.144.769-.452-.086-.145.769-.452.168.284.768-.452-.167-.285.769-.452-.071-.121.768-.452.072.121,2.306-1.357.085.144.446-.262.054.129.078-.033.184.444-.078.032c.165.4.39.936.554,1.33l-.065.027.185.443.064-.027.185.443.152-.063.185.443-.153.064.184.443.078-.032.185.443-.078.032c.092.221.278.667.369.887l-.139.058.184.443.217-.09.184.443-.077.032c.092.221.277.667.369.887l-.065.027.185.443.064-.027.185.444.077-.032.185.442-.078.033c.165.394.39.935.553,1.33l-.064.027.185.443.064-.027.185.444.152-.064.185.443-.153.064.184.443.078-.032.184.443-.077.033.369.886-.14.058.185.443.217-.09.184.443-.077.033c.091.22.277.666.369.886l-.065.027.184.443.065-.026.184.442.078-.032.185.444-.078.032.155.373Zm53.175-30.415a5.573,5.573,0,0,0-1.824.723l-.29-.024-.167.1.117.127-.725.426-.168-.284-.81.476.167.285-.81.477.071.121-.811.476-.071-.12-2.434,1.432-.085-.145-.811.477.085.145-.812.478.071.12-.812.478-.071-.12-1.623.955-.086-.145-.812.477.239.406-.812.477-.153-.26-1.624.955-.085-.145-.812.478.086.145-.812.478-.168-.285-.811.478.167.284-.812.478.071.12-.811.478-.071-.121-2.436,1.433-.085-.145-.812.478.086.145-.812.477.071.121-.812.478-.071-.121-1.624.955-.085-.145-.811.478.238.4-.812.478-.153-.26-1.623.955-.086-.145-.812.477.085.145-.811.478-.167-.285-.813.478.168.285-.812.477.071.121-.812.477-.071-.12L85.982,107.8l-.085-.145-.812.479.085.144-.811.478.071.121-.812.477-.071-.12-1.624.955-.085-.145-.812.477.239.406-.812.477-.153-.26-1.624.955-.085-.145-.812.478.085.145-.811.477-.168-.284-.812.477.168.285-.812.477.071.121-.812.478-.071-.121c-.722.426-1.712,1.008-2.435,1.433l-.085-.145-.812.478.085.145-.811.477.07.121-.811.478-.072-.121-.385.227-.18-.433.078-.032-.185-.443L69,116.7l-.184-.443-.065.027-.184-.444.065-.026c-.092-.221-.278-.667-.369-.887l.077-.032-.184-.444-.217.091-.185-.444.14-.058-.369-.886.077-.033-.184-.443-.078.033-.184-.444.153-.063-.185-.444-.152.064-.185-.444-.064.027-.185-.443.064-.027c-.164-.394-.388-.935-.553-1.329l.078-.033-.185-.443-.077.032-.185-.443-.064.027-.185-.444.065-.027-.369-.886.078-.033-.185-.443L64.8,107l-.184-.443.139-.057c-.092-.221-.277-.667-.369-.887l.078-.032-.185-.444-.077.032-.185-.443.153-.063-.185-.444-.152.064-.185-.444-.064.028-.185-.444.065-.027c-.165-.394-.389-.935-.553-1.33l.077-.032L62.8,101.6l-.078.032-.144-.345.663-.39-.071-.12.768-.453.072.12,1.537-.9.085.145.769-.452-.238-.406.768-.452.154.261c.382-.226,1.155-.681,1.537-.905l.085.145.769-.453-.085-.145.769-.452.167.285.769-.453-.167-.284.769-.453L71.63,95.8l.768-.452.071.121,2.39-1.406.085.145.811-.477-.086-.145.811-.476-.071-.121.81-.477.071.12,1.621-.953L79,91.82l.957-.563-.349-.34.306-.18.024.284,2.028-.173.014.168,1.014-.087-.015-.168,1.014-.086-.012-.14,1.014-.086.012.139,2.027-.173.015.168,1.014-.087-.041-.469,1.014-.086.026.3,2.027-.174.015.168,1.013-.087-.014-.167,1.014-.086.028.329,1.014-.087-.029-.329,1.014-.087-.012-.139,1.014-.087.012.14,3.041-.26.014.168,1.014-.087-.014-.168,1.014-.086-.012-.14,1.014-.086.011.139,2.028-.173.014.167,1.014-.086-.04-.468,1.014-.087.025.3,2.028-.173.014.167,1.014-.086-.015-.168,1.014-.087.028.33,1.014-.087-.028-.329,1.014-.087-.012-.139,1.013-.087.013.14,2.887-.247.014.168.937-.081-.014-.167.937-.08-.012-.139.868-.074-.018.142.787-.068-.424.205c.42-.006,1.891-.729,2.313-.669Zm.139-.591.225-.126.075.181Z" fill="#fff" stroke="#072434" stroke-width="1"/>
    <circle id="Ellipse_3" data-name="Ellipse 3" cx="19" cy="19" r="19" transform="translate(76.334 1.25)" fill="none" stroke="#072434" stroke-linecap="round" stroke-width="2.5" stroke-dasharray="0 8.525"/>
  </g>
</svg>
