<svg xmlns="http://www.w3.org/2000/svg" width="101.662" height="99.58" viewBox="0 0 101.662 99.58">
  <path id="Path_707" data-name="Path 707" d="M18.161,0,10.336,20.871l.226.085L5.176,35.324l.014.006-1.762,4.7-.24-.09L0,48.443,17.432,62.335l.151-.188,12,9.561.011-.011,3.923,3.127-.159.2,7.1,5.662L59.058,68.4l-.131-.2,12.8-8.46-.009-.011,4.187-2.765.14.213,7.58-5.007L77.689,30.683l-.23.063L73.37,15.957l-.014,0-1.336-4.835.246-.068L69.845,2.3,47.577,1.31l-.009.24L32.237.868V.882L27.225.66,27.236.4Z" transform="matrix(0.966, -0.259, 0.259, 0.966, 0, 21.644)" fill="#072434"/>
</svg>
